PathFileType	3	(X/Y/Z)	D:\Vicon Setup\UG\Test1\New Session\NewSession09.trc
DataRate	CameraRate	NumFrames	NumMarkers	Units	OrigDataRate	OrigDataStartFrame	OrigNumFrames
100.0	100.0	13	27	mm	100.0	114	911	
Frame#	Time	Sternum			LShoulder			RShoulder			LASIS			RASIS			RPSIS			LPSIS			RKneeLateral			RKneeMedial			RFibulaHead			RMidShank			RAnkleLateral			RAnkleMedial			RHeel			RMT5			RMT2			RToe			LKneeLateral			LKneeMedial			LFibulaHead			LMidShank			LAnkleLateral			LAnkleMedial			LHeel			LMT5			LMT2			LToe			
		X1	Y1	Z1	X2	Y2	Z2	X3	Y3	Z3	X4	Y4	Z4	X5	Y5	Z5	X6	Y6	Z6	X7	Y7	Z7	X8	Y8	Z8	X9	Y9	Z9	X10	Y10	Z10	X11	Y11	Z11	X12	Y12	Z12	X13	Y13	Z13	X14	Y14	Z14	X15	Y15	Z15	X16	Y16	Z16	X17	Y17	Z17	X18	Y18	Z18	X19	Y19	Z19	X20	Y20	Z20	X21	Y21	Z21	X22	Y22	Z22	X23	Y23	Z23	X24	Y24	Z24	X25	Y25	Z25	X26	Y26	Z26	X27	Y27	Z27	
114	1.13	259.82782	1384.2186	-1605.979	75.49205	1440.4067	-1494.4479	447.07834	1412.4812	-1523.4442	137.02332	996.31635	-1602.6294	397.25284	1004.7385	-1600.326	324.25571	1019.543	-1425.9971	194.18633	1016.4586	-1421.134	446.97806	538.65656	-1480.6771	322.68475	498.22235	-1526.1077	457.28525	458.37573	-1471.9987	403.78909	287.5224	-1518.605	474.79303	92.958328	-1459.8865	404.6543	119.11707	-1522.2778	405.56821	61.425659	-1404.6434	553.71521	32.43988	-1596.8051	489.05457	62.982464	-1616.3397	495.02747	44.196671	-1669.2561	89.088608	522.47113	-1499.6919	218.59561	493.95483	-1524.8877	83.942192	461.88828	-1480.3073	144.38583	300.28995	-1517.3757	79.174728	100.41943	-1448.7688	156.63626	114.02799	-1498.9281	145.49301	63.320957	-1386.3101	13.564737	43.846436	-1573.0114	72.673042	61.715733	-1600.7286	58.79744	42.234955	-1660.4386
115	1.14	259.80176	1384.225	-1605.9777	75.470757	1440.4584	-1494.4512	447.03802	1412.439	-1523.4293	137.03763	996.31274	-1602.7024	397.26123	1004.7493	-1600.3727	324.26523	1019.5496	-1426.0635	194.18758	1016.4835	-1421.1992	446.9873	538.66565	-1480.7148	322.69055	498.22025	-1526.1361	457.29861	458.3826	-1472.0332	403.79291	287.5155	-1518.6167	474.79889	92.963722	-1459.8876	404.65698	119.11398	-1522.2762	405.57031	61.434254	-1404.6428	553.71466	32.442501	-1596.8091	489.05484	62.985584	-1616.3416	495.02789	44.202732	-1669.2646	89.081955	522.47345	-1499.777	218.59583	493.97025	-1524.9613	83.947914	461.89273	-1480.3824	144.38896	300.28134	-1517.41	79.177879	100.4326	-1448.7787	156.64323	114.03687	-1498.9482	145.49538	63.334568	-1386.3112	13.57581	43.848305	-1573.0118	72.676453	61.714005	-1600.7338	58.788036	42.227047	-1660.4418
116	1.15	259.77103	1384.2279	-1605.9769	75.450241	1440.5082	-1494.4573	447.00049	1412.3947	-1523.418	137.05013	996.30865	-1602.7753	397.26685	1004.7596	-1600.4199	324.28787	1019.545	-1426.1378	194.20015	1016.5002	-1421.2638	446.99933	538.67102	-1480.7494	322.69812	498.21487	-1526.1611	457.31415	458.384	-1472.0654	403.79651	287.50769	-1518.6288	474.80902	92.96508	-1459.8873	404.6597	119.10919	-1522.2738	405.57593	61.436996	-1404.6426	553.71741	32.441288	-1596.8115	489.05707	62.984364	-1616.3423	495.03217	44.205387	-1669.2683	89.076866	522.47052	-1499.8674	218.59875	493.97943	-1525.0327	83.952393	461.89285	-1480.464	144.39183	300.2717	-1517.4434	79.186317	100.43918	-1448.7894	156.65584	114.03987	-1498.9673	145.50151	63.342876	-1386.3153	13.588791	43.846581	-1573.0109	72.68116	61.712048	-1600.7391	58.782326	42.213062	-1660.443
117	1.16	259.73758	1384.2275	-1605.978	75.427544	1440.5568	-1494.4645	446.96863	1412.3461	-1523.4102	137.0598	996.30359	-1602.8479	397.26956	1004.7704	-1600.4658	324.31937	1019.5237	-1426.2212	194.22093	1016.5045	-1421.329	447.01328	538.67114	-1480.7815	322.70615	498.20715	-1526.1848	457.33002	458.38031	-1472.0958	403.79898	287.49899	-1518.6411	474.81982	92.961586	-1459.8865	404.6611	119.10324	-1522.2715	405.58423	61.432564	-1404.6432	553.72339	32.436394	-1596.812	489.06067	62.97963	-1616.3427	495.03967	44.203465	-1669.2659	89.072365	522.46277	-1499.9578	218.60426	493.98203	-1525.0979	83.9543	461.88846	-1480.5475	144.39577	300.26532	-1517.4849	79.20018	100.43712	-1448.7992	156.67236	114.0358	-1498.9818	145.51224	63.344574	-1386.3223	13.602062	43.842045	-1573.0092	72.686363	61.709473	-1600.7439	58.780815	42.192642	-1660.443
118	1.17	259.70474	1384.2242	-1605.9819	75.401131	1440.6057	-1494.4722	446.94299	1412.2928	-1523.4056	137.0657	996.29736	-1602.9207	397.26938	1004.7821	-1600.5084	324.35309	1019.4861	-1426.3102	194.24435	1016.4963	-1421.396	447.02695	538.66553	-1480.8124	322.71231	498.19897	-1526.2078	457.34399	458.37317	-1472.1243	403.80011	287.48898	-1518.652	474.82968	92.95459	-1459.8844	404.6608	119.09617	-1522.2712	405.59396	61.421436	-1404.6451	553.73163	32.428371	-1596.8101	489.06567	62.971405	-1616.3418	495.04901	44.196178	-1669.2587	89.067131	522.45129	-1500.0436	218.61099	493.97928	-1525.1531	83.953056	461.87988	-1480.6273	144.40039	300.26382	-1517.5352	79.217804	100.42726	-1448.8065	156.69002	114.02486	-1498.9906	145.52733	63.339798	-1386.33	13.613949	43.836391	-1573.0063	72.690742	61.705135	-1600.7476	58.783672	42.167698	-1660.4431
119	1.18	259.67657	1384.219	-1605.99	75.378044	1440.6526	-1494.4849	446.92291	1412.2344	-1523.4044	137.06725	996.29065	-1602.9938	397.26572	1004.7958	-1600.5464	324.38116	1019.4366	-1426.3975	194.26329	1016.4791	-1421.4663	447.03714	538.65607	-1480.8429	322.71429	498.19241	-1526.2292	457.35342	458.36465	-1472.1503	403.79987	287.47897	-1518.6622	474.83774	92.947174	-1459.8821	404.65924	119.0879	-1522.2736	405.60352	61.40675	-1404.6482	553.74042	32.418697	-1596.807	489.07211	62.959843	-1616.34	495.05795	44.184074	-1669.2495	89.060616	522.43774	-1500.1217	218.61696	493.97409	-1525.1963	83.948471	461.86917	-1480.6984	144.40314	300.26587	-1517.5863	79.236076	100.41349	-1448.8119	156.70609	114.00924	-1498.9939	145.54468	63.330917	-1386.3365	13.623123	43.830986	-1573.0029	72.693291	61.698353	-1600.7505	58.789848	42.141731	-1660.444
120	1.19	259.65692	1384.2129	-1606.0031	75.368172	1440.6926	-1494.51	446.90735	1412.1726	-1523.4067	137.06396	996.28516	-1603.0684	397.25833	1004.812	-1600.5789	324.39594	1019.3831	-1426.4763	194.27077	1016.4581	-1421.5402	447.04095	538.64569	-1480.8733	322.71103	498.18869	-1526.2501	457.35602	458.35678	-1472.1742	403.79779	287.47134	-1518.6733	474.8432	92.942261	-1459.8807	404.65732	119.07926	-1522.2781	405.61084	61.393257	-1404.652	553.74866	32.409477	-1596.8038	489.07892	62.947041	-1616.3378	495.06509	44.170052	-1669.2413	89.052826	522.42523	-1500.1914	218.62061	493.96985	-1525.2302	83.940063	461.86026	-1480.7585	144.40218	300.27002	-1517.6315	79.251549	100.4007	-1448.8174	156.71861	113.99263	-1498.9928	145.56102	63.322006	-1386.3408	13.629325	43.826748	-1572.9991	72.694176	61.689693	-1600.7529	58.797356	42.118309	-1660.4463
121	1.2	259.64807	1384.2073	-1606.021	75.372284	1440.7271	-1494.5487	446.89539	1412.11	-1523.4115	137.05586	996.28229	-1603.1449	397.24802	1004.8304	-1600.6068	324.39206	1019.3337	-1426.5443	194.26195	1016.4381	-1421.6151	447.03622	538.63763	-1480.9027	322.70285	498.1882	-1526.2715	457.35083	458.3508	-1472.1954	403.79401	287.4675	-1518.6863	474.84518	92.941208	-1459.8816	404.65561	119.07191	-1522.2842	405.61407	61.385162	-1404.6558	553.75513	32.40276	-1596.8019	489.08432	62.937199	-1616.3364	495.07043	44.158886	-1669.2358	89.043823	522.41699	-1500.2552	218.6207	493.9693	-1525.2609	83.927368	461.85684	-1480.8094	144.39769	300.2757	-1517.6691	79.262276	100.3925	-1448.8243	156.7267	113.97888	-1498.9889	145.57343	63.316776	-1386.3438	13.633566	43.824406	-1572.9956	72.694305	61.680798	-1600.7556	58.804363	42.100418	-1660.4495
122	1.21	259.65134	1384.2047	-1606.0443	75.382965	1440.7616	-1494.5951	446.88632	1412.0498	-1523.4167	137.04323	996.28265	-1603.2231	397.23621	1004.8488	-1600.631	324.36789	1019.2951	-1426.6012	194.23563	1016.4242	-1421.6892	447.02213	538.63422	-1480.9293	322.6911	498.18988	-1526.2932	457.33853	458.34796	-1472.2139	403.78909	287.46646	-1518.7003	474.84317	92.944008	-1459.8844	404.65421	119.06702	-1522.2911	405.61264	61.385052	-1404.6587	553.75861	32.400093	-1596.8016	489.08725	62.934422	-1616.3383	495.07422	44.154755	-1669.2338	89.034149	522.41498	-1500.3173	218.61623	493.97449	-1525.2937	83.910957	461.8605	-1480.8558	144.39114	300.28168	-1517.7009	79.268028	100.39096	-1448.8317	156.73021	113.97107	-1498.9847	145.58002	63.317574	-1386.3458	13.637489	43.82365	-1572.9922	72.694725	61.673344	-1600.7587	58.809517	42.090279	-1660.4542
123	1.22	259.66708	1384.2086	-1606.0747	75.395691	1440.8003	-1494.6451	446.88086	1411.9952	-1523.4204	137.02675	996.28589	-1603.3026	397.2236	1004.8658	-1600.6541	324.32599	1019.2708	-1426.6484	194.19373	1016.4208	-1421.7605	446.9989	538.63568	-1480.9531	322.67651	498.19199	-1526.3142	457.31992	458.34961	-1472.2296	403.78381	287.46637	-1518.7137	474.83707	92.950165	-1459.8887	404.65292	119.06447	-1522.2988	405.60703	61.393902	-1404.6602	553.75848	32.402058	-1596.8032	489.08762	62.940701	-1616.3442	495.0759	44.158951	-1669.2369	89.024643	522.41913	-1500.382	218.6057	493.98718	-1525.333	83.892128	461.87064	-1480.9037	144.38406	300.28622	-1517.7291	79.269264	100.39719	-1448.839	156.72935	113.97063	-1498.9833	145.58025	63.325546	-1386.3481	13.642249	43.823097	-1572.9879	72.696419	61.668232	-1600.7626	58.811691	42.088448	-1660.4606
124	1.23	259.69537	1384.2214	-1606.116	75.411339	1440.8434	-1494.6993	446.8811	1411.9479	-1523.4215	137.00714	996.2915	-1603.382	397.20978	1004.8791	-1600.6779	324.27231	1019.2595	-1426.6881	194.14078	1016.4311	-1421.8295	446.96844	538.64154	-1480.973	322.65918	498.19269	-1526.3354	457.29398	458.3576	-1472.2399	403.77835	287.46579	-1518.724	474.82764	92.95903	-1459.8942	404.6517	119.06345	-1522.3064	405.59836	61.410603	-1404.6603	553.75458	32.407867	-1596.8068	489.08572	62.955021	-1616.3547	495.07495	44.169598	-1669.2456	89.014145	522.42841	-1500.4509	218.58788	494.00647	-1525.3813	83.871452	461.88531	-1480.9574	144.37708	300.28906	-1517.7571	79.266396	100.41108	-1448.8459	156.72501	113.97729	-1498.9863	145.57487	63.340256	-1386.3503	13.647585	43.822163	-1572.9827	72.6996	61.665836	-1600.7676	58.809906	42.093189	-1660.4691
125	1.24	259.73532	1384.2446	-1606.1704	75.432404	1440.8876	-1494.7606	446.88962	1411.9053	-1523.4192	136.98506	996.29828	-1603.4606	397.19296	1004.8866	-1600.7043	324.21347	1019.2571	-1426.722	194.08266	1016.453	-1421.8973	446.93387	538.65057	-1480.9889	322.63907	498.19116	-1526.3595	457.25851	458.37445	-1472.2386	403.77191	287.46442	-1518.7302	474.81705	92.969513	-1459.9004	404.65024	119.06377	-1522.3135	405.58878	61.431355	-1404.66	553.7478	32.416065	-1596.8114	489.08185	62.973492	-1616.368	495.0719	44.182831	-1669.2581	88.998001	522.44141	-1500.5205	218.56329	494.02808	-1525.4386	83.848465	461.90198	-1481.0166	144.36888	300.29147	-1517.7871	79.260132	100.43063	-1448.8538	156.71857	113.9892	-1498.9948	145.56615	63.359215	-1386.3536	13.651944	43.822147	-1572.9779	72.703323	61.66621	-1600.7733	58.803783	42.101269	-1660.4794
126	1.25	259.78467	1384.2749	-1606.2341	75.462463	1440.9282	-1494.8325	446.9072	1411.8651	-1523.4117	136.9606	996.3056	-1603.5378	397.17062	1004.8853	-1600.7345	324.15411	1019.2581	-1426.754	194.02451	1016.4809	-1421.9644	446.89807	538.66083	-1481.0011	322.61612	498.18799	-1526.3878	457.21149	458.4025	-1472.2197	403.76257	287.4635	-1518.7343	474.80734	92.979904	-1459.9073	404.64798	119.0664	-1522.3198	405.58051	61.451054	-1404.6603	553.74042	32.42519	-1596.8159	489.07651	62.991425	-1616.3813	495.06818	44.194622	-1669.2698	88.97261	522.45599	-1500.5862	218.53384	494.04688	-1525.5022	83.822952	461.91809	-1481.0793	144.35713	300.2952	-1517.8219	79.252129	100.45228	-1448.8623	156.7119	114.00344	-1499.007	145.55721	63.379101	-1386.3585	13.653656	43.825031	-1572.9749	72.706009	61.669014	-1600.7789	58.794437	42.109425	-1660.4895
